<svg width="48" height="48" viewBox="0 0 48 48" fill="none" xmlns="http://www.w3.org/2000/svg">
<circle cx="24" cy="24" r="24" fill="#0BCAD4"/>
<path d="M21.7801 18.18C22.0286 18.18 22.2301 17.9786 22.2301 17.73C22.2301 17.4815 22.0286 17.28 21.7801 17.28C21.5315 17.28 21.3301 17.4815 21.3301 17.73C21.3301 17.9786 21.5315 18.18 21.7801 18.18Z" fill="white"/>
<path d="M26.2801 18.18C26.5286 18.18 26.7301 17.9786 26.7301 17.73C26.7301 17.4815 26.5286 17.28 26.2801 17.28C26.0315 17.28 25.8301 17.4815 25.8301 17.73C25.8301 17.9786 26.0315 18.18 26.2801 18.18Z" fill="white"/>
<path d="M30.5634 26.8256L26.73 25.9233V24.93C26.8493 24.93 26.9638 24.8825 27.0482 24.7982C27.1325 24.7138 27.18 24.5993 27.18 24.48V24.2482C27.7329 23.8771 28.1861 23.3759 28.5 22.7886C28.8139 22.2013 28.9787 21.5459 28.98 20.88H29.43C29.7879 20.8795 30.131 20.7371 30.384 20.484C30.6371 20.231 30.7795 19.8879 30.78 19.53V17.73C30.7796 17.4509 30.6929 17.1788 30.5318 16.951C30.3706 16.7232 30.143 16.5508 29.88 16.4576V15.03C29.8785 13.7176 29.3565 12.4594 28.4285 11.5314C27.5005 10.6034 26.2423 10.0814 24.93 10.08H23.13C21.8176 10.0814 20.5594 10.6034 19.6314 11.5314C18.7034 12.4594 18.1814 13.7176 18.18 15.03V16.4576C17.917 16.5508 17.6893 16.7232 17.5281 16.951C17.367 17.1788 17.2803 17.4509 17.28 17.73V19.53C17.2804 19.8879 17.4228 20.231 17.6759 20.484C17.929 20.7371 18.2721 20.8795 18.63 20.88H19.08C19.0812 21.5459 19.2461 22.2013 19.5599 22.7886C19.8738 23.3759 20.3271 23.8771 20.88 24.2482V24.48C20.88 24.5993 20.9274 24.7138 21.0118 24.7982C21.0961 24.8825 21.2106 24.93 21.33 24.93V25.9233L17.4965 26.8256C16.4088 27.0779 15.4389 27.692 14.7456 28.5673C14.0523 29.4426 13.6766 30.5273 13.68 31.644V37.53C13.68 37.6493 13.7274 37.7638 13.8118 37.8482C13.8961 37.9325 14.0106 37.98 14.13 37.98H33.93C34.0493 37.98 34.1638 37.9325 34.2482 37.8482C34.3325 37.7638 34.38 37.6493 34.38 37.53V31.644C34.3834 30.5273 34.0077 29.4426 33.3143 28.5673C32.621 27.692 31.6511 27.0779 30.5634 26.8256V26.8256ZM28.08 20.88C28.0784 21.7036 27.7555 22.4941 27.18 23.0833V20.1661L28.08 19.2661V20.88ZM29.88 17.73V19.53C29.8798 19.6493 29.8323 19.7636 29.748 19.848C29.6636 19.9323 29.5493 19.9798 29.43 19.98H28.98V17.28H29.43C29.5493 17.2801 29.6636 17.3276 29.748 17.4119C29.8323 17.4963 29.8798 17.6107 29.88 17.73V17.73ZM19.08 19.98H18.63C18.5107 19.9798 18.3963 19.9323 18.3119 19.848C18.2276 19.7636 18.1801 19.6493 18.18 19.53V17.73C18.1801 17.6107 18.2276 17.4963 18.3119 17.4119C18.3963 17.3276 18.5107 17.2801 18.63 17.28H19.08V19.98ZM19.08 16.38V15.03C19.0812 13.9562 19.5083 12.9268 20.2675 12.1675C21.0268 11.4083 22.0562 10.9812 23.13 10.98H24.93C26.0037 10.9812 27.0331 11.4083 27.7924 12.1675C28.5516 12.9268 28.9787 13.9562 28.98 15.03V16.38H28.53C27.7222 16.38 26.6332 14.7285 26.2327 13.9286C26.1929 13.8489 26.1304 13.7828 26.053 13.7387C25.9757 13.6945 25.887 13.6743 25.7981 13.6807C25.7093 13.687 25.6243 13.7195 25.554 13.7742C25.4836 13.8288 25.4311 13.9031 25.403 13.9876C25.3681 14.0928 25.0571 14.6626 22.3745 15.5576C21.0448 16.0008 19.7415 16.3175 19.4776 16.38H19.08ZM20.88 23.0833C20.3044 22.4941 19.9815 21.7036 19.98 20.88V19.2661L20.88 20.1661V23.0833ZM19.98 17.9938V17.1843C20.507 17.0533 21.5595 16.7776 22.6535 16.4131C24.4085 15.8281 25.3018 15.336 25.7675 14.9377C25.9126 15.1768 26.0983 15.4625 26.3137 15.75C26.9156 16.5526 27.5079 17.0415 28.08 17.2113V17.9938L26.5753 19.4979L24.1042 19.0861C24.0551 19.0777 24.0048 19.0777 23.9557 19.0861L21.4846 19.4979L19.98 17.9938ZM21.78 24.03V20.3613L24.03 19.9861L26.28 20.3613V24.03H21.78ZM25.83 24.93V26.28C25.83 27.0241 25.0228 27.63 24.03 27.63C23.0371 27.63 22.23 27.0241 22.23 26.28V24.93H25.83ZM33.48 37.08H30.78V34.38C30.78 34.2606 30.7325 34.1461 30.6482 34.0618C30.5638 33.9774 30.4493 33.93 30.33 33.93C30.2106 33.93 30.0961 33.9774 30.0118 34.0618C29.9274 34.1461 29.88 34.2606 29.88 34.38V37.08H18.18V34.38C18.18 34.2606 18.1325 34.1461 18.0482 34.0618C17.9638 33.9774 17.8493 33.93 17.73 33.93C17.6106 33.93 17.4961 33.9774 17.4118 34.0618C17.3274 34.1461 17.28 34.2606 17.28 34.38V37.08H14.58V31.644C14.5771 30.7304 14.8844 29.8429 15.4517 29.1268C16.0189 28.4107 16.8125 27.9083 17.7024 27.702L19.08 27.3774V29.9368C18.6558 30.0463 18.2861 30.3068 18.0402 30.6694C17.7943 31.032 17.6891 31.4718 17.7443 31.9064C17.7995 32.341 18.0113 32.7406 18.3401 33.0302C18.6688 33.3198 19.0918 33.4796 19.53 33.4796C19.9681 33.4796 20.3911 33.3198 20.7199 33.0302C21.0486 32.7406 21.2604 32.341 21.3156 31.9064C21.3708 31.4718 21.2656 31.032 21.0197 30.6694C20.7738 30.3068 20.4042 30.0463 19.98 29.9368V27.18C19.98 27.1755 19.9794 27.171 19.9794 27.1659L21.4115 26.829C21.7063 27.8055 22.7683 28.53 24.03 28.53C25.2916 28.53 26.3536 27.8055 26.6484 26.829L28.0805 27.1659C28.0805 27.171 28.08 27.1755 28.08 27.18V30.375C27.5721 30.4794 27.1157 30.7557 26.7878 31.1574C26.46 31.559 26.2806 32.0615 26.28 32.58C26.28 32.6993 26.3274 32.8138 26.4118 32.8982C26.4961 32.9825 26.6106 33.03 26.73 33.03H27.63C27.7493 33.03 27.8638 32.9825 27.9482 32.8982C28.0325 32.8138 28.08 32.6993 28.08 32.58C28.08 32.4606 28.0325 32.3461 27.9482 32.2618C27.8638 32.1774 27.7493 32.13 27.63 32.13H27.257C27.35 31.8666 27.5224 31.6387 27.7504 31.4774C27.9783 31.3161 28.2507 31.2295 28.53 31.2295C28.8092 31.2295 29.0816 31.3161 29.3096 31.4774C29.5375 31.6387 29.7099 31.8666 29.8029 32.13H29.43C29.3106 32.13 29.1961 32.1774 29.1118 32.2618C29.0274 32.3461 28.98 32.4606 28.98 32.58C28.98 32.6993 29.0274 32.8138 29.1118 32.8982C29.1961 32.9825 29.3106 33.03 29.43 33.03H30.33C30.4493 33.03 30.5638 32.9825 30.6482 32.8982C30.7325 32.8138 30.78 32.6993 30.78 32.58C30.7793 32.0615 30.6 31.559 30.2721 31.1574C29.9442 30.7557 29.4878 30.4794 28.98 30.375V27.3774L30.3575 27.702C31.2475 27.9083 32.041 28.4107 32.6082 29.1268C33.1755 29.8429 33.4828 30.7304 33.48 31.644V37.08ZM19.53 30.78C19.708 30.78 19.882 30.8327 20.03 30.9316C20.178 31.0305 20.2933 31.1711 20.3614 31.3355C20.4296 31.5 20.4474 31.681 20.4127 31.8555C20.3779 32.0301 20.2922 32.1905 20.1664 32.3164C20.0405 32.4422 19.8801 32.5279 19.7055 32.5627C19.531 32.5974 19.35 32.5796 19.1855 32.5114C19.0211 32.4433 18.8805 32.328 18.7816 32.18C18.6827 32.032 18.63 31.858 18.63 31.68C18.6303 31.4414 18.7252 31.2126 18.8939 31.0439C19.0626 30.8752 19.2914 30.7803 19.53 30.78Z" fill="white"/>
</svg>
