<svg width="48" height="48" viewBox="0 0 48 48" fill="none" xmlns="http://www.w3.org/2000/svg">
<circle cx="24" cy="24" r="24" fill="#0BCAD4"/>
<path d="M20.43 18.6C20.6785 18.6 20.88 18.3985 20.88 18.15C20.88 17.9014 20.6785 17.7 20.43 17.7C20.1815 17.7 19.98 17.9014 19.98 18.15C19.98 18.3985 20.1815 18.6 20.43 18.6Z" fill="white"/>
<path d="M24.93 18.6C25.1785 18.6 25.38 18.3985 25.38 18.15C25.38 17.9014 25.1785 17.7 24.93 17.7C24.6815 17.7 24.48 17.9014 24.48 18.15C24.48 18.3985 24.6815 18.6 24.93 18.6Z" fill="white"/>
<path d="M29.2135 26.3457L25.3801 25.4434V24.9C25.4994 24.9 25.6139 24.8526 25.6983 24.7682C25.7827 24.6839 25.8301 24.5694 25.8301 24.45V24.2183C26.383 23.8472 26.8363 23.3459 27.1501 22.7586C27.464 22.1713 27.6288 21.516 27.6301 20.85H28.0801C28.438 20.8496 28.7811 20.7072 29.0342 20.4541C29.2872 20.201 29.4296 19.8579 29.4301 19.5V17.7C29.4298 17.421 29.3431 17.1489 29.1819 16.9211C29.0208 16.6933 28.7931 16.5209 28.5301 16.4277V15C28.5286 13.6877 28.0066 12.4295 27.0786 11.5015C26.1507 10.5735 24.8925 10.0515 23.5801 10.05H21.7801C20.4677 10.0515 19.2095 10.5735 18.2816 11.5015C17.3536 12.4295 16.8316 13.6877 16.8301 15V16.4277C16.5671 16.5209 16.3394 16.6933 16.1783 16.9211C16.0171 17.1489 15.9304 17.421 15.9301 17.7V19.5C15.9306 19.8579 16.073 20.201 16.326 20.4541C16.5791 20.7072 16.9222 20.8496 17.2801 20.85H17.7301C17.7314 21.516 17.8962 22.1713 18.2101 22.7586C18.5239 23.3459 18.9772 23.8472 19.5301 24.2183V24.45C19.5301 24.5694 19.5775 24.6839 19.6619 24.7682C19.7463 24.8526 19.8608 24.9 19.9801 24.9V25.4434L16.1467 26.3457C15.0589 26.598 14.089 27.2121 13.3957 28.0874C12.7024 28.9627 12.3267 30.0474 12.3301 31.164V37.5C12.3301 37.6194 12.3775 37.7339 12.4619 37.8182C12.5463 37.9026 12.6608 37.95 12.7801 37.95H32.5801C32.6994 37.95 32.8139 37.9026 32.8983 37.8182C32.9827 37.7339 33.0301 37.6194 33.0301 37.5V31.164C33.0335 30.0474 32.6578 28.9627 31.9645 28.0874C31.2712 27.2121 30.3013 26.598 29.2135 26.3457V26.3457ZM26.7301 20.85C26.7286 21.6737 26.4057 22.4642 25.8301 23.0534V20.0693L26.7301 18.4943V20.85ZM28.5301 17.7V19.5C28.5299 19.6193 28.4825 19.7337 28.3981 19.8181C28.3138 19.9024 28.1994 19.9499 28.0801 19.95H27.6301V17.25H28.0801C28.1994 17.2502 28.3138 17.2977 28.3981 17.382C28.4825 17.4664 28.5299 17.5808 28.5301 17.7V17.7ZM17.7301 19.95H17.2801C17.1608 19.9499 17.0464 19.9024 16.9621 19.8181C16.8777 19.7337 16.8303 19.6193 16.8301 19.5V17.7C16.8303 17.5808 16.8777 17.4664 16.9621 17.382C17.0464 17.2977 17.1608 17.2502 17.2801 17.25H17.7301V19.95ZM17.7301 16.35V15C17.7313 13.9263 18.1584 12.8969 18.9177 12.1376C19.6769 11.3784 20.7064 10.9513 21.7801 10.95H23.5801C24.6538 10.9513 25.6833 11.3784 26.4425 12.1376C27.2018 12.8969 27.6289 13.9263 27.6301 15V16.35H27.1801C26.3724 16.35 25.2834 14.6985 24.8829 13.8987C24.8431 13.819 24.7806 13.7529 24.7032 13.7087C24.6258 13.6646 24.5371 13.6444 24.4483 13.6508C24.3594 13.6571 24.2744 13.6896 24.2041 13.7443C24.1338 13.7989 24.0812 13.8732 24.0532 13.9577C24.0183 14.0629 23.7072 14.6327 21.0247 15.5277C19.6949 15.9709 18.3916 16.2876 18.1278 16.35H17.7301ZM19.5301 23.0534C18.9545 22.4642 18.6316 21.6737 18.6301 20.85V18.7362L19.5301 20.0862V23.0534ZM18.6532 17.1482C19.1875 17.0155 20.2248 16.7427 21.3037 16.3832C23.0587 15.7982 23.9519 15.306 24.4177 14.9078C24.5628 15.1469 24.7484 15.4326 24.9639 15.72C25.4836 16.4125 25.9955 16.872 26.4939 17.0942L25.145 19.4545L22.7544 19.0562C22.7052 19.0478 22.655 19.0478 22.6059 19.0562L20.1933 19.4584L18.6532 17.1482ZM20.4301 24V20.3314L22.6801 19.9562L24.9301 20.3314V24H20.4301ZM24.4801 24.9V25.8C24.4801 26.5442 23.6729 27.15 22.6801 27.15C21.6873 27.15 20.8801 26.5442 20.8801 25.8V24.9H24.4801ZM20.0617 26.349C20.3564 27.3255 21.4184 28.05 22.6801 28.05C23.9418 28.05 25.0038 27.3255 25.2985 26.349L25.7637 26.4587C25.6411 27.8504 24.3057 28.95 22.6801 28.95C21.0545 28.95 19.7191 27.8504 19.5965 26.4587L20.0617 26.349ZM32.1301 37.05H29.4301V32.1C29.4301 31.9807 29.3827 31.8662 29.2983 31.7818C29.2139 31.6975 29.0994 31.65 28.9801 31.65C28.8608 31.65 28.7463 31.6975 28.6619 31.7818C28.5775 31.8662 28.5301 31.9807 28.5301 32.1V37.05H16.8301V32.1C16.8301 31.9807 16.7827 31.8662 16.6983 31.7818C16.6139 31.6975 16.4994 31.65 16.3801 31.65C16.2608 31.65 16.1463 31.6975 16.0619 31.7818C15.9775 31.8662 15.9301 31.9807 15.9301 32.1V37.05H13.2301V31.164C13.2273 30.2505 13.5346 29.363 14.1018 28.6469C14.6691 27.9308 15.4626 27.4284 16.3525 27.222L18.7139 26.6663C18.9434 28.4556 20.6343 29.85 22.6801 29.85C24.7259 29.85 26.4168 28.4556 26.6463 26.6663L29.0077 27.222C29.8976 27.4284 30.6911 27.9308 31.2584 28.6469C31.8256 29.363 32.133 30.2505 32.1301 31.164V37.05Z" fill="white"/>
<path d="M33.9301 22.65C33.6631 22.65 33.4021 22.7292 33.1801 22.8775C32.9581 23.0259 32.785 23.2367 32.6828 23.4834C32.5807 23.7301 32.5539 24.0015 32.606 24.2634C32.6581 24.5253 32.7867 24.7658 32.9755 24.9546C33.1643 25.1434 33.4048 25.272 33.6667 25.3241C33.9286 25.3762 34.2 25.3494 34.4467 25.2473C34.6934 25.1451 34.9042 24.972 35.0526 24.75C35.2009 24.528 35.2801 24.267 35.2801 24C35.2797 23.6421 35.1373 23.299 34.8842 23.0459C34.6311 22.7928 34.288 22.6504 33.9301 22.65V22.65ZM33.9301 24.45C33.8411 24.45 33.7541 24.4236 33.6801 24.3742C33.6061 24.3247 33.5484 24.2545 33.5143 24.1722C33.4803 24.09 33.4714 23.9995 33.4887 23.9122C33.5061 23.8249 33.5489 23.7448 33.6119 23.6818C33.6748 23.6189 33.755 23.576 33.8423 23.5587C33.9296 23.5413 34.0201 23.5502 34.1023 23.5843C34.1845 23.6183 34.2548 23.676 34.3042 23.75C34.3537 23.824 34.3801 23.911 34.3801 24C34.3799 24.1193 34.3325 24.2337 34.2481 24.3181C34.1638 24.4024 34.0494 24.4499 33.9301 24.45V24.45Z" fill="white"/>
<path d="M35.2799 21.6617V11.4C35.2799 11.042 35.1377 10.6986 34.8845 10.4455C34.6313 10.1923 34.2879 10.05 33.9299 10.05C33.5719 10.05 33.2285 10.1923 32.9753 10.4455C32.7221 10.6986 32.5799 11.042 32.5799 11.4V11.85H32.1299C32.0106 11.85 31.8961 11.8975 31.8117 11.9819C31.7273 12.0662 31.6799 12.1807 31.6799 12.3C31.6799 12.4194 31.7273 12.5339 31.8117 12.6182C31.8961 12.7026 32.0106 12.75 32.1299 12.75H32.5799V13.65H32.1299C32.0106 13.65 31.8961 13.6975 31.8117 13.7819C31.7273 13.8662 31.6799 13.9807 31.6799 14.1C31.6799 14.2194 31.7273 14.3339 31.8117 14.4182C31.8961 14.5026 32.0106 14.55 32.1299 14.55H32.5799V15.45H32.1299C32.0106 15.45 31.8961 15.4975 31.8117 15.5819C31.7273 15.6662 31.6799 15.7807 31.6799 15.9C31.6799 16.0194 31.7273 16.1339 31.8117 16.2182C31.8961 16.3026 32.0106 16.35 32.1299 16.35H32.5799V17.25H32.1299C32.0106 17.25 31.8961 17.2975 31.8117 17.3819C31.7273 17.4662 31.6799 17.5807 31.6799 17.7C31.6799 17.8194 31.7273 17.9339 31.8117 18.0182C31.8961 18.1026 32.0106 18.15 32.1299 18.15H32.5799V19.05H32.1299C32.0106 19.05 31.8961 19.0975 31.8117 19.1819C31.7273 19.2662 31.6799 19.3807 31.6799 19.5C31.6799 19.6194 31.7273 19.7339 31.8117 19.8182C31.8961 19.9026 32.0106 19.95 32.1299 19.95H32.5799V21.6623C32.0796 21.9513 31.6853 22.3931 31.4547 22.9229C31.2242 23.4526 31.1697 24.0424 31.2992 24.6054C31.4287 25.1684 31.7353 25.6751 32.1741 26.0509C32.6129 26.4267 33.1607 26.6519 33.737 26.6933C33.8028 26.6978 33.868 26.7 33.9327 26.7C34.6156 26.702 35.2733 26.4426 35.771 25.975C36.0798 25.6871 36.3167 25.3309 36.4629 24.9349C36.6091 24.5388 36.6603 24.114 36.6126 23.6946C36.5648 23.2752 36.4194 22.8728 36.1879 22.5197C35.9565 22.1667 35.6455 21.8728 35.2799 21.6617V21.6617ZM35.1573 25.3169C34.9074 25.5499 34.5963 25.707 34.2604 25.7698C33.9246 25.8326 33.5778 25.7985 33.2605 25.6715C32.9433 25.5445 32.6688 25.3298 32.4691 25.0525C32.2694 24.7753 32.1527 24.4469 32.1327 24.1058C32.1126 23.7384 32.205 23.3736 32.3974 23.0599C32.5898 22.7463 32.8732 22.4988 33.2099 22.3502C33.2902 22.3153 33.3585 22.2577 33.4065 22.1844C33.4544 22.1112 33.48 22.0255 33.4799 21.9379V11.4C33.4799 11.2807 33.5273 11.1662 33.6117 11.0819C33.6961 10.9975 33.8106 10.95 33.9299 10.95C34.0493 10.95 34.1637 10.9975 34.2481 11.0819C34.3325 11.1662 34.3799 11.2807 34.3799 11.4V21.9379C34.3798 22.0255 34.4054 22.1112 34.4533 22.1844C34.5013 22.2577 34.5696 22.3153 34.6499 22.3502C34.9235 22.4696 35.1632 22.6552 35.3472 22.8902C35.5313 23.1252 35.654 23.4023 35.7043 23.6966C35.7547 23.9909 35.731 24.293 35.6355 24.5758C35.54 24.8587 35.3757 25.1133 35.1573 25.3169V25.3169Z" fill="white"/>
</svg>
