<svg width="48" height="48" viewBox="0 0 48 48" fill="none" xmlns="http://www.w3.org/2000/svg">
<circle cx="24" cy="24" r="24" fill="#0BCAD4"/>
<path d="M21.7801 18.63C22.0286 18.63 22.2301 18.4285 22.2301 18.18C22.2301 17.9315 22.0286 17.73 21.7801 17.73C21.5315 17.73 21.3301 17.9315 21.3301 18.18C21.3301 18.4285 21.5315 18.63 21.7801 18.63Z" fill="white"/>
<path d="M26.2801 18.63C26.5286 18.63 26.7301 18.4285 26.7301 18.18C26.7301 17.9315 26.5286 17.73 26.2801 17.73C26.0315 17.73 25.8301 17.9315 25.8301 18.18C25.8301 18.4285 26.0315 18.63 26.2801 18.63Z" fill="white"/>
<path d="M30.5634 26.3756L26.73 25.4733V24.93C26.8493 24.93 26.9638 24.8825 27.0482 24.7982C27.1325 24.7138 27.18 24.5993 27.18 24.48V24.2482C27.7329 23.8771 28.1861 23.3759 28.5 22.7886C28.8139 22.2013 28.9787 21.5459 28.98 20.88H29.43C29.7879 20.8795 30.131 20.7371 30.384 20.484C30.6371 20.231 30.7795 19.8879 30.78 19.53V17.73C30.7796 17.4509 30.6929 17.1788 30.5318 16.951C30.3706 16.7232 30.143 16.5508 29.88 16.4576V15.03C29.8785 13.7176 29.3565 12.4594 28.4285 11.5314C27.5005 10.6034 26.2423 10.0814 24.93 10.08H23.13C21.8176 10.0814 20.5594 10.6034 19.6314 11.5314C18.7034 12.4594 18.1814 13.7176 18.18 15.03V16.4576C17.917 16.5508 17.6893 16.7232 17.5281 16.951C17.367 17.1788 17.2803 17.4509 17.28 17.73V19.53C17.2804 19.8879 17.4228 20.231 17.6759 20.484C17.929 20.7371 18.2721 20.8795 18.63 20.88H19.08C19.0812 21.5459 19.2461 22.2013 19.5599 22.7886C19.8738 23.3759 20.3271 23.8771 20.88 24.2482V24.48C20.88 24.5993 20.9274 24.7138 21.0118 24.7982C21.0961 24.8825 21.2106 24.93 21.33 24.93V25.4733L17.4965 26.3756C16.4088 26.6279 15.4389 27.242 14.7456 28.1173C14.0523 28.9926 13.6766 30.0773 13.68 31.194V37.53C13.68 37.6493 13.7274 37.7638 13.8118 37.8482C13.8961 37.9325 14.0106 37.98 14.13 37.98H33.93C34.0493 37.98 34.1638 37.9325 34.2482 37.8482C34.3325 37.7638 34.38 37.6493 34.38 37.53V31.194C34.3834 30.0773 34.0077 28.9926 33.3143 28.1173C32.621 27.242 31.6511 26.6279 30.5634 26.3756V26.3756ZM28.08 20.88C28.0784 21.7036 27.7555 22.4941 27.18 23.0833V20.0992L28.08 18.5242V20.88ZM29.88 17.73V19.53C29.8798 19.6493 29.8323 19.7636 29.748 19.848C29.6636 19.9323 29.5493 19.9798 29.43 19.98H28.98V17.28H29.43C29.5493 17.2801 29.6636 17.3276 29.748 17.4119C29.8323 17.4963 29.8798 17.6107 29.88 17.73V17.73ZM19.08 19.98H18.63C18.5107 19.9798 18.3963 19.9323 18.3119 19.848C18.2276 19.7636 18.1801 19.6493 18.18 19.53V17.73C18.1801 17.6107 18.2276 17.4963 18.3119 17.4119C18.3963 17.3276 18.5107 17.2801 18.63 17.28H19.08V19.98ZM19.08 16.38V15.03C19.0812 13.9562 19.5083 12.9268 20.2675 12.1675C21.0268 11.4083 22.0562 10.9812 23.13 10.98H24.93C26.0037 10.9812 27.0331 11.4083 27.7924 12.1675C28.5516 12.9268 28.9787 13.9562 28.98 15.03V16.38H28.7161L26.5983 14.2616C26.536 14.1994 26.4568 14.1568 26.3705 14.1391C26.2843 14.1214 26.1947 14.1293 26.1129 14.162L24.03 14.9951L21.947 14.162C21.8652 14.1293 21.7757 14.1214 21.6894 14.1391C21.6031 14.1568 21.5239 14.1994 21.4616 14.2616L19.3438 16.38H19.08ZM20.88 23.0833C20.3044 22.4941 19.9815 21.7036 19.98 20.88V18.7661L20.88 20.1161V23.0833ZM19.98 17.1438V17.0161L21.8885 15.1081L23.8629 15.8979C23.9702 15.9406 24.0897 15.9406 24.197 15.8979L26.1714 15.1081L27.9686 16.9053L26.4948 19.4844L24.1042 19.0861C24.0551 19.0777 24.0048 19.0777 23.9557 19.0861L21.5431 19.4883L19.98 17.1438ZM21.78 24.03V20.3613L24.03 19.9861L26.28 20.3613V24.03H21.78ZM25.83 24.93V25.83C25.83 26.5741 25.0228 27.18 24.03 27.18C23.0371 27.18 22.23 26.5741 22.23 25.83V24.93H25.83ZM21.4115 26.379C21.7063 27.3555 22.7683 28.08 24.03 28.08C25.2916 28.08 26.3536 27.3555 26.6484 26.379L27.1136 26.4886C26.991 27.8803 25.6556 28.98 24.03 28.98C22.4043 28.98 21.069 27.8803 20.9463 26.4886L21.4115 26.379ZM33.48 37.08H30.78V32.13C30.78 32.0106 30.7325 31.8961 30.6482 31.8118C30.5638 31.7274 30.4493 31.68 30.33 31.68C30.2106 31.68 30.0961 31.7274 30.0118 31.8118C29.9274 31.8961 29.88 32.0106 29.88 32.13V37.08H18.18V32.13C18.18 32.0106 18.1325 31.8961 18.0482 31.8118C17.9638 31.7274 17.8493 31.68 17.73 31.68C17.6106 31.68 17.4961 31.7274 17.4118 31.8118C17.3274 31.8961 17.28 32.0106 17.28 32.13V37.08H14.58V31.194C14.5771 30.2804 14.8844 29.3929 15.4517 28.6768C16.0189 27.9607 16.8125 27.4583 17.7024 27.252L20.0638 26.6962C20.2933 28.4855 21.9841 29.88 24.03 29.88C26.0758 29.88 27.7666 28.4855 27.9961 26.6962L30.3575 27.252C31.2475 27.4583 32.041 27.9607 32.6082 28.6768C33.1755 29.3929 33.4828 30.2804 33.48 31.194V37.08Z" fill="white"/>
<path d="M28.9801 32.13H26.2801C26.1607 32.13 26.0463 32.1774 25.9619 32.2618C25.8775 32.3462 25.8301 32.4607 25.8301 32.58V36.18C25.8301 36.2994 25.8775 36.4138 25.9619 36.4982C26.0463 36.5826 26.1607 36.63 26.2801 36.63H28.9801C29.0994 36.63 29.2139 36.5826 29.2983 36.4982C29.3827 36.4138 29.4301 36.2994 29.4301 36.18V32.58C29.4301 32.4607 29.3827 32.3462 29.2983 32.2618C29.2139 32.1774 29.0994 32.13 28.9801 32.13ZM28.5301 35.73H26.7301V33.03H28.5301V35.73Z" fill="white"/>
</svg>
