<svg width="48" height="48" viewBox="0 0 48 48" fill="none" xmlns="http://www.w3.org/2000/svg">
<circle cx="24" cy="24" r="24" fill="#0BCAD4"/>
<path d="M29.2048 18.63H26.7298V17.28C26.7298 17.1606 26.6824 17.0461 26.598 16.9618C26.5136 16.8774 26.3991 16.83 26.2798 16.83H25.3798V14.13H26.2798C26.3991 14.13 26.5136 14.0825 26.598 13.9982C26.6824 13.9138 26.7298 13.7993 26.7298 13.68V13.23H28.0798V13.68C28.0798 13.7993 28.1272 13.9138 28.2116 13.9982C28.296 14.0825 28.4104 14.13 28.5298 14.13H29.8798C29.9991 14.13 30.1136 14.0825 30.198 13.9982C30.2824 13.9138 30.3298 13.7993 30.3298 13.68V11.43C30.3298 11.3106 30.2824 11.1961 30.198 11.1118C30.1136 11.0274 29.9991 10.98 29.8798 10.98H26.7298V10.53C26.7298 10.4106 26.6824 10.2961 26.598 10.2118C26.5136 10.1274 26.3991 10.08 26.2798 10.08H21.7798C21.6604 10.08 21.546 10.1274 21.4616 10.2118C21.3772 10.2961 21.3298 10.4106 21.3298 10.53V13.68C21.3298 13.7993 21.3772 13.9138 21.4616 13.9982C21.546 14.0825 21.6604 14.13 21.7798 14.13H22.6798V16.83H21.7798C21.6604 16.83 21.546 16.8774 21.4616 16.9618C21.3772 17.0461 21.3298 17.1606 21.3298 17.28V18.63H18.8548C18.4372 18.6304 18.0369 18.7965 17.7416 19.0918C17.4463 19.387 17.2802 19.7874 17.2798 20.205V36.405C17.2802 36.8225 17.4463 37.2229 17.7416 37.5181C18.0369 37.8134 18.4372 37.9795 18.8548 37.98H29.2048C29.6224 37.9795 30.0227 37.8134 30.318 37.5181C30.6132 37.2229 30.7793 36.8225 30.7798 36.405V20.205C30.7793 19.7874 30.6132 19.387 30.318 19.0918C30.0227 18.7965 29.6224 18.6304 29.2048 18.63V18.63ZM26.7298 11.88H29.4298V13.23H28.9798V12.78C28.9798 12.6606 28.9324 12.5461 28.848 12.4618C28.7636 12.3774 28.6491 12.33 28.5298 12.33H26.7298V11.88ZM22.2298 13.23V10.98H25.8298V13.23H22.2298ZM24.4798 14.13V16.83H23.5798V14.13H24.4798ZM22.2298 17.73H25.8298V18.63H22.2298V17.73ZM29.8798 36.405C29.8796 36.5839 29.8085 36.7555 29.6819 36.8821C29.5554 37.0086 29.3838 37.0798 29.2048 37.08H18.8548C18.6758 37.0798 18.5042 37.0086 18.3777 36.8821C18.2511 36.7555 18.1799 36.5839 18.1798 36.405V20.205C18.1799 20.026 18.2511 19.8544 18.3777 19.7278C18.5042 19.6013 18.6758 19.5301 18.8548 19.53H29.2048C29.3838 19.5301 29.5554 19.6013 29.6819 19.7278C29.8085 19.8544 29.8796 20.026 29.8798 20.205V36.405Z" fill="white"/>
<path d="M25.3801 26.2801V25.3801C25.3801 25.2607 25.3327 25.1462 25.2483 25.0619C25.1639 24.9775 25.0494 24.9301 24.9301 24.9301H23.1301C23.0107 24.9301 22.8963 24.9775 22.8119 25.0619C22.7275 25.1462 22.6801 25.2607 22.6801 25.3801V26.2801H21.7801C21.6607 26.2801 21.5463 26.3275 21.4619 26.4119C21.3775 26.4962 21.3301 26.6107 21.3301 26.7301V28.5301C21.3301 28.6494 21.3775 28.7639 21.4619 28.8483C21.5463 28.9326 21.6607 28.9801 21.7801 28.9801H22.6801V29.8801C22.6801 29.9994 22.7275 30.1139 22.8119 30.1983C22.8963 30.2826 23.0107 30.3301 23.1301 30.3301H24.9301C25.0494 30.3301 25.1639 30.2826 25.2483 30.1983C25.3327 30.1139 25.3801 29.9994 25.3801 29.8801V28.9801H26.2801C26.3994 28.9801 26.5139 28.9326 26.5983 28.8483C26.6827 28.7639 26.7301 28.6494 26.7301 28.5301V26.7301C26.7301 26.6107 26.6827 26.4962 26.5983 26.4119C26.5139 26.3275 26.3994 26.2801 26.2801 26.2801H25.3801ZM25.8301 28.0801H24.9301C24.8107 28.0801 24.6963 28.1275 24.6119 28.2119C24.5275 28.2962 24.4801 28.4107 24.4801 28.5301V29.4301H23.5801V28.5301C23.5801 28.4107 23.5327 28.2962 23.4483 28.2119C23.3639 28.1275 23.2494 28.0801 23.1301 28.0801H22.2301V27.1801H23.1301C23.2494 27.1801 23.3639 27.1326 23.4483 27.0483C23.5327 26.9639 23.5801 26.8494 23.5801 26.7301V25.8301H24.4801V26.7301C24.4801 26.8494 24.5275 26.9639 24.6119 27.0483C24.6963 27.1326 24.8107 27.1801 24.9301 27.1801H25.8301V28.0801Z" fill="white"/>
<path d="M24.0298 23.13C23.1398 23.13 22.2697 23.3939 21.5297 23.8884C20.7897 24.3829 20.2129 25.0857 19.8723 25.9079C19.5317 26.7302 19.4426 27.635 19.6163 28.5079C19.7899 29.3808 20.2185 30.1826 20.8478 30.812C21.4771 31.4413 22.279 31.8699 23.1519 32.0435C24.0248 32.2172 24.9296 32.1281 25.7519 31.7875C26.5741 31.4469 27.2769 30.8701 27.7714 30.1301C28.2659 29.39 28.5298 28.52 28.5298 27.63C28.5284 26.4369 28.0539 25.2931 27.2103 24.4495C26.3666 23.6059 25.2228 23.1314 24.0298 23.13V23.13ZM24.0298 31.23C23.3178 31.23 22.6218 31.0189 22.0297 30.6233C21.4377 30.2277 20.9763 29.6655 20.7038 29.0077C20.4313 28.3499 20.3601 27.626 20.499 26.9277C20.6379 26.2293 20.9807 25.5879 21.4842 25.0844C21.9877 24.581 22.6291 24.2381 23.3275 24.0992C24.0258 23.9603 24.7496 24.0316 25.4074 24.304C26.0653 24.5765 26.6275 25.0379 27.0231 25.63C27.4186 26.222 27.6298 26.918 27.6298 27.63C27.6287 28.5845 27.2491 29.4995 26.5742 30.1744C25.8993 30.8493 24.9842 31.2289 24.0298 31.23V31.23Z" fill="white"/>
</svg>
