<svg width="184" height="181" viewBox="0 0 184 181" fill="none" xmlns="http://www.w3.org/2000/svg">
<ellipse cx="92" cy="160.862" rx="92" ry="19.5" fill="#C4C4C4" fill-opacity="0.5"/>
<path d="M160.324 23.922H156.75V18.244C156.75 16.863 155.631 15.744 154.25 15.744H140.25C138.869 15.744 137.75 16.863 137.75 18.244V23.922H125.333V17.581C125.333 7.887 117.446 0 107.752 0H76.247C66.553 0 58.666 7.887 58.666 17.581V23.922H46.25V18.244C46.25 16.863 45.131 15.744 43.75 15.744H29.75C28.369 15.744 27.25 16.863 27.25 18.244V23.922H23.676C10.6 23.922 0 34.522 0 47.598V131.048C0 144.124 10.6 154.724 23.676 154.724H160.324C173.4 154.724 184 144.124 184 131.048V47.598C184 34.522 173.4 23.922 160.324 23.922ZM68.666 17.581C68.666 13.401 72.067 10 76.247 10H107.752C111.932 10 115.333 13.401 115.333 17.581V23.922H68.666V17.581ZM92 131.968C68.448 131.968 49.355 112.875 49.355 89.323C49.355 65.771 68.448 46.678 92 46.678C115.552 46.678 134.645 65.771 134.645 89.323C134.645 112.875 115.552 131.968 92 131.968ZM124.015 99.796C124.015 100.459 123.753 101.095 123.285 101.565C122.816 102.034 122.181 102.298 121.518 102.299L105.003 102.314V118.828C105.003 120.209 103.884 121.328 102.503 121.328H81.497C80.116 121.328 78.997 120.209 78.997 118.828V102.338L62.507 102.353C62.506 102.353 62.506 102.353 62.505 102.353C61.843 102.353 61.208 102.09 60.739 101.623C60.27 101.154 60.006 100.519 60.005 99.856L59.986 78.851C59.985 77.47 61.103 76.35 62.484 76.349L78.998 76.334V59.818C78.998 58.437 80.117 57.318 81.498 57.318H102.503C103.884 57.318 105.003 58.437 105.003 59.818V76.308L121.493 76.293C121.494 76.293 121.495 76.293 121.495 76.293C122.875 76.293 123.994 77.411 123.995 78.791L124.015 99.796Z" fill="#00ADB5"/>
</svg>
